<mxfile host="65bd71144e">
    <diagram id="uyFQYL-Re7s6b14m4JeI" name="Page-1">
        <mxGraphModel dx="1003" dy="633" grid="1" gridSize="10" guides="1" tooltips="1" connect="1" arrows="1" fold="1" page="1" pageScale="1" pageWidth="827" pageHeight="1169" math="0" shadow="0">
            <root>
                <mxCell id="0"/>
                <mxCell id="1" parent="0"/>
                <mxCell id="2" value="" style="rounded=0;whiteSpace=wrap;html=1;fontFamily=Georgia;fillColor=#E6E6E6;" vertex="1" parent="1">
                    <mxGeometry x="40" y="40" width="360" height="210" as="geometry"/>
                </mxCell>
                <mxCell id="3" value="&lt;div&gt;&lt;span&gt;&lt;font style=&quot;font-size: 18px&quot;&gt;&lt;b&gt;Allocate shared memory&lt;/b&gt;&lt;/font&gt;&lt;/span&gt;&lt;/div&gt;" style="text;html=1;strokeColor=none;fillColor=none;align=center;verticalAlign=middle;whiteSpace=wrap;rounded=0;fontFamily=Georgia;" vertex="1" parent="1">
                    <mxGeometry x="122.5" y="50" width="195" height="20" as="geometry"/>
                </mxCell>
                <mxCell id="5" value="0x00000 - 0x0FFFF" style="rounded=0;whiteSpace=wrap;html=1;fillColor=#fff2cc;strokeColor=#d6b656;fontFamily=Georgia;" vertex="1" parent="1">
                    <mxGeometry x="140" y="80" width="240" height="30" as="geometry"/>
                </mxCell>
                <mxCell id="6" value="&lt;span&gt;0x10000 - 0x1FFFF&lt;/span&gt;" style="rounded=0;whiteSpace=wrap;html=1;fillColor=#d5e8d4;strokeColor=#82b366;fontFamily=Georgia;" vertex="1" parent="1">
                    <mxGeometry x="140" y="110" width="240" height="30" as="geometry"/>
                </mxCell>
                <mxCell id="7" value="&lt;span&gt;0x20000 - 0x2FFFF&lt;/span&gt;" style="rounded=0;whiteSpace=wrap;html=1;fillColor=#d5e8d4;strokeColor=#82b366;fontFamily=Georgia;" vertex="1" parent="1">
                    <mxGeometry x="140" y="140" width="240" height="30" as="geometry"/>
                </mxCell>
                <mxCell id="8" value="&lt;span&gt;0x30000 - 0x3FFFF&lt;/span&gt;" style="rounded=0;whiteSpace=wrap;html=1;fillColor=#d5e8d4;strokeColor=#82b366;fontFamily=Georgia;" vertex="1" parent="1">
                    <mxGeometry x="140" y="170" width="240" height="30" as="geometry"/>
                </mxCell>
                <mxCell id="9" value="&lt;span&gt;0x40000 - 0x4FFFF&lt;/span&gt;" style="rounded=0;whiteSpace=wrap;html=1;fillColor=#d5e8d4;strokeColor=#82b366;fontFamily=Georgia;" vertex="1" parent="1">
                    <mxGeometry x="140" y="200" width="240" height="30" as="geometry"/>
                </mxCell>
                <mxCell id="10" value="Code Coverage" style="text;html=1;align=center;verticalAlign=middle;resizable=0;points=[];autosize=1;strokeColor=none;fontFamily=Georgia;" vertex="1" parent="1">
                    <mxGeometry x="45" y="85" width="90" height="20" as="geometry"/>
                </mxCell>
                <mxCell id="17" value="" style="shape=curlyBracket;whiteSpace=wrap;html=1;rounded=1;fontFamily=Georgia;" vertex="1" parent="1">
                    <mxGeometry x="110" y="110" width="20" height="120" as="geometry"/>
                </mxCell>
                <mxCell id="18" value="ORCs" style="text;html=1;align=center;verticalAlign=middle;resizable=0;points=[];autosize=1;strokeColor=none;fontFamily=Georgia;" vertex="1" parent="1">
                    <mxGeometry x="70" y="160" width="40" height="20" as="geometry"/>
                </mxCell>
            </root>
        </mxGraphModel>
    </diagram>
</mxfile>